# xmcd CD database file
#
# Track frame offsets:
#	150
#	33903
#	49883
#	61911
#	71058
#	85855
#	141608
#	155098
#	165675
#	183427
#	194783
#	206877
#	281829
#
# Disc length: 3838 seconds
#
# Revision: 1
# Processed by: cddbd v1.5.2PL0 Copyright (c) Steve Scherf et al.
# Submitted via: CDex 1.51
#
DISCID=d20efc0d
DTITLE=The Doors - Box Set - Disc 1
DYEAR=1900
DGENRE=Blues
TTITLE0=Five To One
TTITLE1=Queen Of The Highway
TTITLE2=Hyacinth House
TTITLE3=My Eyes Have Seen You
TTITLE4=Who Scared You
TTITLE5=Black Train Song
TTITLE6=End Of The Night
TTITLE7=Whiskey, Mystics And Men
TTITLE8=I Will Never Be Untrue
TTITLE9=Moonlight Drive (Demo)
TTITLE10=Moonlight Drive (Sunset Sound)
TTITLE11=Rock Is Dead
TTITLE12=Albinoni's Adagio In G Minor
EXTD=
EXTT0=
EXTT1=
EXTT2=
EXTT3=
EXTT4=
EXTT5=
EXTT6=
EXTT7=
EXTT8=
EXTT9=
EXTT10=
EXTT11=
EXTT12=
PLAYORDER=
